<?xml version="1.0" encoding="UTF-8" standalone="no"?>
<!-- Generator: Adobe Illustrator 19.0.0, SVG Export Plug-In . SVG Version: 6.00 Build 0)  -->

<svg
   version="1.1"
   id="Capa_1"
   x="0px"
   y="0px"
   viewBox="0 0 59.521 59.521"
   style="enable-background:new 0 0 59.521 59.521;"
   xml:space="preserve"
   sodipodi:docname="mobil-logo.svg"
   inkscape:version="1.1.1 (c3084ef, 2021-09-22)"
   xmlns:inkscape="http://www.inkscape.org/namespaces/inkscape"
   xmlns:sodipodi="http://sodipodi.sourceforge.net/DTD/sodipodi-0.dtd"
   xmlns="http://www.w3.org/2000/svg"
   xmlns:svg="http://www.w3.org/2000/svg"><defs
   id="defs5717" /><sodipodi:namedview
   id="namedview5715"
   pagecolor="#ffffff"
   bordercolor="#666666"
   borderopacity="1.0"
   inkscape:pageshadow="2"
   inkscape:pageopacity="0.0"
   inkscape:pagecheckerboard="0"
   showgrid="false"
   inkscape:zoom="12.07977"
   inkscape:cx="23.262032"
   inkscape:cy="0.57948122"
   inkscape:window-width="1792"
   inkscape:window-height="1120"
   inkscape:window-x="1920"
   inkscape:window-y="0"
   inkscape:window-maximized="0"
   inkscape:current-layer="Capa_1" />
<g
   id="g5682"
   transform="matrix(0.14780469,-0.00145116,0.00118328,0.13597931,-0.01110327,0.18642433)"
   style="fill:#b95541;fill-opacity:0.980392">
	<path
   d="M 59.521,57.796 53.012,51.287 39.014,37.289 39.122,37.154 c 3.02,-3.883 3.271,-9.287 0.712,-13.429 l 10.045,-10.044 0.753,0.753 c 0.377,0.377 0.873,0.565 1.368,0.565 0.495,0 0.991,-0.188 1.368,-0.565 l 0.088,-0.088 1.414,1.414 1.414,-1.414 -1.414,-1.414 1.414,-1.414 1.414,1.414 1.414,-1.414 -1.704,-1.704 C 58.114,8.028 57.75,5.913 56.307,4.471 L 54.846,3.009 C 53.403,1.568 51.288,1.205 49.503,1.909 L 47.798,0.204 46.384,1.618 47.798,3.032 46.384,4.447 44.97,3.032 43.556,4.446 44.97,5.861 44.883,5.948 c -0.755,0.755 -0.755,1.982 0,2.737 l 0.752,0.752 -9.989,9.989 C 31.455,16.64 25.926,16.809 21.882,19.957 L 21.772,20.048 8.485,6.761 7.021,5.296 5.606,6.71 7.142,8.246 c -0.538,0.811 -0.829,1.761 -0.829,2.757 0,1.336 0.521,2.592 1.474,3.544 l 10.097,9.842 c 0.697,1.85 -0.045,4.36 -1.859,6.176 -2.243,2.243 -5.402,2.8 -7.194,1.265 L 8.192,31.282 4.551,34.294 c -2.668,2.075 -4.318,5.2 -4.528,8.573 -0.204,3.298 0.994,6.526 3.283,8.903 -0.918,0.921 -1.102,2.289 -0.574,3.402 L 0.294,57.61 c -0.391,0.391 -0.391,1.023 0,1.414 0.194,0.195 0.45,0.292 0.706,0.292 0.256,0 0.512,-0.098 0.707,-0.293 l 2.436,-2.436 c 0.398,0.19 0.832,0.3 1.286,0.3 0.8,0 1.553,-0.312 2.118,-0.876 2.2,2.119 5.13,3.305 8.172,3.305 0.243,0 0.487,-0.008 0.731,-0.022 3.374,-0.21 6.499,-1.861 8.564,-4.518 l 2.962,-3.698 -0.522,-0.628 c -1.492,-1.794 -0.922,-4.938 1.298,-7.158 1.743,-1.743 4.114,-2.496 5.958,-1.926 0.318,0.351 0.771,0.812 1.451,1.497 l 9.074,9.132 c 0.943,0.944 2.199,1.465 3.535,1.465 0.996,0 1.946,-0.291 2.757,-0.829 l 6.58,6.58 z M 46.298,7.362 49.236,4.423 C 49.34,4.319 49.456,4.235 49.572,4.149 49.649,4.094 49.727,4.04 49.82,3.983 l 0.033,-0.02 c 0.458,-0.265 0.968,-0.408 1.482,-0.408 0.76,0 1.52,0.289 2.098,0.867 l 1.461,1.462 c 0.965,0.965 1.113,2.432 0.466,3.565 L 55.331,9.498 C 55.276,9.591 55.222,9.668 55.167,9.745 55.082,9.86 54.998,9.976 54.894,10.08 L 52,12.974 51.287,12.273 51.293,12.267 47.05,8.023 47.01,8.063 Z m 2.167,4.905 -17.637,17.635 -1.414,-1.414 7.851,-7.851 v 0 L 47.05,10.851 Z M 8.313,11.003 c 0,-0.455 0.101,-0.896 0.292,-1.294 l 11.619,11.619 -0.693,0.573 -0.722,0.597 -9.617,-9.375 C 8.626,12.558 8.313,11.805 8.313,11.003 Z M 4.722,54.595 C 4.333,54.206 4.333,53.574 4.72,53.184 l 2.452,-2.453 1.414,1.415 -2.451,2.449 c -0.375,0.378 -1.033,0.378 -1.413,0 z M 27.338,41.878 c -2.698,2.697 -3.447,6.559 -1.9,9.171 l -1.992,2.488 c -1.723,2.216 -4.317,3.586 -7.119,3.76 -2.726,0.168 -5.4,-0.809 -7.371,-2.692 l 2.459,-2.459 -4.242,-4.243 -2.46,2.46 C 2.829,48.392 1.85,45.718 2.02,42.99 2.194,40.189 3.564,37.594 5.803,35.852 l 2.42,-2.002 c 2.617,1.588 6.491,0.853 9.216,-1.872 2.246,-2.247 3.191,-5.292 2.489,-7.809 l 1.481,-1.225 1.73,-1.43 c 3.231,-2.509 7.633,-2.724 11.063,-0.642 l -7.616,7.616 4.242,4.242 7.548,-7.547 c 1.865,3.377 1.578,7.637 -0.818,10.724 l -2.728,3.41 c -2.472,-0.55 -5.339,0.408 -7.492,2.561 z M 46.65,50.582 C 44.207,48.126 38.415,42.301 36.529,40.394 l 0.32,-0.4 0.907,-1.133 12.307,12.307 c -1.1,0.527 -2.528,0.299 -3.413,-0.586 z"
   id="path5676"
   style="fill:#b95541;fill-opacity:0.980392" />
	<path
   d="m 19.099,36.585 c 0.391,0.391 1.023,0.391 1.414,0 0.391,-0.391 0.391,-1.023 0,-1.414 -1.134,-1.134 -3.112,-1.132 -4.242,0 l -4.243,4.242 c -0.391,0.391 -1.023,0.391 -1.414,0 -0.391,-0.391 -1.023,-0.391 -1.414,0 -0.391,0.391 -0.391,1.023 0,1.414 0.585,0.585 1.353,0.877 2.121,0.877 0.768,0 1.536,-0.292 2.121,-0.877 l 4.244,-4.242 c 0.376,-0.379 1.033,-0.377 1.413,0 z"
   id="path5678"
   style="fill:#b95541;fill-opacity:0.980392" />
	<path
   d="m 22.634,38.706 c -0.391,0.391 -0.391,1.023 0,1.414 0.39,0.391 0.39,1.024 0,1.415 l -4.242,4.242 c -0.566,0.566 -0.879,1.32 -0.879,2.121 0,0.802 0.313,1.556 0.879,2.122 0.195,0.194 0.451,0.292 0.707,0.292 0.256,0 0.513,-0.098 0.708,-0.293 0.39,-0.392 0.39,-1.024 -10e-4,-1.415 -0.189,-0.188 -0.293,-0.438 -0.293,-0.706 0,-0.267 0.104,-0.518 0.293,-0.707 l 4.242,-4.242 c 1.17,-1.17 1.17,-3.073 0,-4.243 -0.391,-0.391 -1.024,-0.391 -1.414,0 z"
   id="path5680"
   style="fill:#b95541;fill-opacity:0.980392" />
</g>
<g
   id="g5684">
</g>
<g
   id="g5686">
</g>
<g
   id="g5688">
</g>
<g
   id="g5690">
</g>
<g
   id="g5692">
</g>
<g
   id="g5694">
</g>
<g
   id="g5696">
</g>
<g
   id="g5698">
</g>
<g
   id="g5700">
</g>
<g
   id="g5702">
</g>
<g
   id="g5704">
</g>
<g
   id="g5706">
</g>
<g
   id="g5708">
</g>
<g
   id="g5710">
</g>
<g
   id="g5712">
</g>
<text
   xml:space="preserve"
   style="font-style:normal;font-weight:normal;font-size:40px;line-height:1.25;font-family:sans-serif;fill:#000000;fill-opacity:1;stroke:none"
   x="-28.642929"
   y="23.427599"
   id="text6452"><tspan
     sodipodi:role="line"
     id="tspan6450"
     x="-28.642929"
     y="23.427599" /></text></svg>
